IKResults
version=1
nRows=7
nColumns=63
inDegrees=yes

Units are S.I. units (second, meters, Newtons, ...)
If the header above contains a line with 'inDegrees', this indicates whether rotational values are in degrees (yes) or radians (no).

endheader
time	pelvis_tilt	pelvis_list	pelvis_rotation	pelvis_tx	pelvis_ty	pelvis_tz	hip_flexion_r	hip_adduction_r	hip_rotation_r	knee_angle_r	knee_angle_r_beta	ankle_angle_r	subtalar_angle_r	mtp_angle_r	hip_flexion_l	hip_adduction_l	hip_rotation_l	knee_angle_l	knee_angle_l_beta	ankle_angle_l	subtalar_angle_l	mtp_angle_l	L5_S1_Flex_Ext	L5_S1_Lat_Bending	L5_S1_axial_rotation	L4_L5_Flex_Ext	L4_L5_Lat_Bending	L4_L5_axial_rotation	L3_L4_Flex_Ext	L3_L4_Lat_Bending	L3_L4_axial_rotation	L2_L3_Flex_Ext	L2_L3_Lat_Bending	L2_L3_axial_rotation	L1_L2_Flex_Ext	L1_L2_Lat_Bending	L1_L2_axial_rotation	L1_T12_Flex_Ext	L1_T12_Lat_Bending	L1_T12_axial_rotation	Abs_r3	Abs_r2	Abs_r1	Abs_t1	Abs_t2	neck_flexion	neck_bending	neck_rotation	arm_flex_r	arm_add_r	arm_rot_r	elbow_flex_r	pro_sup_r	wrist_flex_r	wrist_dev_r	arm_flex_l	arm_add_l	arm_rot_l	elbow_flex_l	pro_sup_l	wrist_flex_l	wrist_dev_l
      0.03333333	      6.00105092	     -3.73608146	    111.75220807	     -0.02090116	      0.95601740	      0.64562749	     10.43680363	    -13.22230369	    -39.56148826	     19.07334863	      0.33289273	      0.00000000	      0.00000000	      0.00000000	      9.25579887	    -13.47777851	    -39.56039632	     23.32753281	      0.40714225	      0.00000000	      0.00000000	      0.00000000	     -0.69608576	      1.01842432	      0.30953510	     -1.29270087	      1.35450434	      0.32888104	     -1.14359930	      2.47619688	      0.32888104	     -0.79555642	      2.47619688	      0.27084321	     -0.64638524	      2.07677087	      0.25149727	     -0.39774341	      1.57753927	      0.23215132	     -4.97207100	     11.52061955	      1.72154135	      0.00000000	      0.00000000	      2.55505067	     -1.60289153	    -20.34966399	     -6.72211913	    -38.99569616	     26.25090560	     50.10195739	     89.99559364	      0.00000000	      0.00000000	     28.44668097	     17.82324517	      7.80782453	     30.99113836	     89.99559364	      0.00000000	      0.00000000
      0.06666667	      6.01342001	     -3.73884645	    111.74961866	     -0.02088680	      0.95599217	      0.64556740	     10.44401876	    -13.21212440	    -39.55764903	     19.07079929	      0.33284824	      0.00000000	      0.00000000	      0.00000000	      9.26014065	    -13.49558369	    -39.55408945	     23.31582714	      0.40693795	      0.00000000	      0.00000000	      0.00000000	     -0.69829369	      1.01882055	      0.30916866	     -1.29680121	      1.35503133	      0.32849170	     -1.14722670	      2.47716029	      0.32849170	     -0.79807986	      2.47716029	      0.27052258	     -0.64843552	      2.07757887	      0.25119954	     -0.39900501	      1.57815303	      0.23187649	     -4.98784200	     11.52510183	      1.71950333	      0.00000000	      0.00000000	      2.53982159	     -1.58162455	    -20.34762656	     -6.71669601	    -39.00274526	     26.24758617	     50.10500952	     89.99559364	      0.00000000	      0.00000000	     28.44501197	     17.82373645	      7.80796489	     30.99412820	     89.99559364	      0.00000000	      0.00000000
      0.10000000	      6.07131669	     -3.72473972	    111.73617623	     -0.02088066	      0.95599402	      0.64533978	     10.43670504	    -13.13765351	    -39.56296659	     19.07551545	      0.33293055	      0.00000000	      0.00000000	      0.00000000	      9.23371162	    -13.56958275	    -39.55710461	     23.25275307	      0.40583710	      0.00000000	      0.00000000	      0.00000000	     -0.69950775	      1.02418593	      0.31073275	     -1.29905585	      1.36216729	      0.33015355	     -1.14922129	      2.49020568	      0.33015355	     -0.79946741	      2.49020568	      0.27189116	     -0.64956290	      2.08851996	      0.25247036	     -0.39969873	      1.58646401	      0.23304956	     -4.99651393	     11.58579613	      1.72820235	      0.00000000	      0.00000000	      2.47090591	     -1.42106653	    -20.28802863	     -6.72403885	    -39.03149435	     26.24649351	     50.09326452	     89.99559364	      0.00000000	      0.00000000	     28.43752531	     17.82552899	      7.80854936	     31.00754345	     89.99559364	      0.00000000	      0.00000000
      0.13333333	      6.09923196	     -3.73977215	    111.72214046	     -0.02082201	      0.95595255	      0.64521082	     10.46033474	    -13.11036477	    -39.56204659	     19.06960694	      0.33282743	      0.00000000	      0.00000000	      0.00000000	      9.25289587	    -13.60943022	    -39.54826822	     23.22128602	      0.40528790	      0.00000000	      0.00000000	      0.00000000	     -0.70510027	      1.02465859	      0.30996013	     -1.30944172	      1.36279593	      0.32933264	     -1.15840924	      2.49135490	      0.32933264	     -0.80585910	      2.49135490	      0.27121511	     -0.65475611	      2.08948380	      0.25184260	     -0.40289430	      1.58719616	      0.23247010	     -5.03646075	     11.59114292	      1.72390524	      0.00000000	      0.00000000	      2.43277121	     -1.36055972	    -20.26830732	     -6.69510915	    -39.05361230	     26.23070787	     50.10395711	     89.99559364	      0.00000000	      0.00000000	     28.43615919	     17.82584552	      7.80865486	     31.01147780	     89.99559364	      0.00000000	      0.00000000
      0.16666667	      6.20483007	     -3.71603369	    111.69331558	     -0.02081453	      0.95593893	      0.64475390	     10.44907726	    -12.97886274	    -39.56433809	     19.07262333	      0.33288007	      0.00000000	      0.00000000	      0.00000000	      9.20079390	    -13.73996446	    -39.54755713	     23.09467435	      0.40307811	      0.00000000	      0.00000000	      0.00000000	     -0.70725572	      1.03366361	      0.31249738	     -1.31344460	      1.37477260	      0.33202846	     -1.16195042	      2.51324971	      0.33202846	     -0.80832256	      2.51324971	      0.27343521	     -0.65675766	      2.10784684	      0.25390412	     -0.40412592	      1.60114493	      0.23437303	     -5.05185689	     11.69300951	      1.73801667	      0.00000000	      0.00000000	      2.31366185	     -1.07018591	    -20.09516372	     -6.70577856	    -39.09285415	     26.22784244	     50.06551801	     89.99559364	      0.00000000	      0.00000000	     28.43221983	     17.82578375	      7.80885200	     31.02421065	     89.99559364	      0.00000000	      0.00000000
      0.20000000	      6.25343820	     -3.73932594	    111.65768765	     -0.02078704	      0.95584751	      0.64443863	     10.47840829	    -12.93057764	    -39.56610283	     19.06181679	      0.33269146	      0.00000000	      0.00000000	      0.00000000	      9.19798533	    -13.79752438	    -39.53774553	     23.04808000	      0.40226488	      0.00000000	      0.00000000	      0.00000000	     -0.71280090	      1.03502531	      0.30970124	     -1.32374255	      1.37658366	      0.32905757	     -1.17106060	      2.51656054	      0.32905757	     -0.81466015	      2.51656054	      0.27098858	     -0.66190692	      2.11062362	      0.25163226	     -0.40729443	      1.60325421	      0.23227593	     -5.09146555	     11.70841333	      1.72246538	      0.00000000	      0.00000000	      2.25370677	     -0.97950991	    -20.03231566	     -6.66012641	    -39.11048791	     26.20534352	     50.08163216	     89.99559364	      0.00000000	      0.00000000	     28.43141719	     17.82564157	      7.80887792	     31.02900495	     89.99559364	      0.00000000	      0.00000000
      0.23333333	      6.37618442	     -3.71929075	    111.62620705	     -0.02071176	      0.95584128	      0.64396307	     10.46766889	    -12.77202119	    -39.56496574	     19.02782587	      0.33209821	      0.00000000	      0.00000000	      0.00000000	      9.16066065	    -13.94151261	    -39.53505391	     22.87789278	      0.39929456	      0.00000000	      0.00000000	      0.00000000	     -0.71749190	      1.04607802	      0.31209947	     -1.33245421	      1.39128376	      0.33160569	     -1.17876745	      2.54343409	      0.33160569	     -0.82002150	      2.54343409	      0.27308704	     -0.66626298	      2.13316229	      0.25358082	     -0.40997487	      1.62037485	      0.23407461	     -5.12497292	     11.83344375	      1.73580365	      0.00000000	      0.00000000	      2.10035447	     -0.67846467	    -19.64563634	     -6.65439321	    -39.14720734	     26.18943527	     50.01974057	     89.99559364	      0.00000000	      0.00000000	     28.43099340	     17.82242374	      7.80854607	     31.04692700	     89.99559364	      0.00000000	      0.00000000
